<svg xmlns="http://www.w3.org/2000/svg" width="1500" height="500" viewBox="0 0 1500 500">
<rect width="1500" height="500" fill="#0B0E14"/>
<path d="M 1140.9 176.0 C 1140.9 179.6 1141.5 184.0 1138.8 186.9 C 1136.1 189.8 1129.6 192.7 1124.6 193.4 C 1119.5 194.2 1113.5 192.6 1108.4 191.4 C 1103.3 190.3 1097.1 189.0 1094.2 186.4 C 1091.3 183.9 1090.6 179.3 1091.0 176.0 C 1091.4 172.7 1093.8 169.3 1096.7 166.7 C 1099.6 164.2 1103.8 161.6 1108.4 160.5 C 1112.9 159.4 1118.8 159.3 1123.9 160.1 C 1128.9 160.8 1135.8 162.5 1138.6 165.2 C 1141.4 167.8 1140.9 172.4 1140.9 176.0 Z" fill="none" stroke="#39445A" stroke-width="1.4"/>
<path d="M 1182.9 190.0 C 1184.1 198.0 1181.7 209.0 1174.7 215.7 C 1167.7 222.5 1153.4 227.9 1141.0 230.7 C 1128.6 233.4 1111.8 235.1 1100.2 232.3 C 1088.5 229.5 1078.4 220.9 1071.2 213.9 C 1063.9 206.8 1057.6 198.4 1056.7 190.0 C 1055.8 181.6 1058.6 170.6 1065.8 163.5 C 1073.0 156.5 1087.6 149.9 1100.1 147.5 C 1112.6 145.2 1129.6 146.3 1140.9 149.6 C 1152.1 153.0 1160.7 160.9 1167.7 167.6 C 1174.7 174.4 1181.8 182.0 1182.9 190.0 Z" fill="none" stroke="#39445A" stroke-width="1.4"/>
<path d="M 1232.1 204.0 C 1232.5 217.0 1220.7 232.4 1208.5 243.6 C 1196.3 254.7 1177.5 267.5 1158.9 270.8 C 1140.3 274.1 1116.5 267.7 1096.7 263.4 C 1077.0 259.1 1052.1 254.8 1040.6 244.9 C 1029.2 235.0 1027.4 217.4 1028.0 204.0 C 1028.7 190.6 1032.8 174.5 1044.3 164.8 C 1055.9 155.2 1078.5 150.1 1097.4 145.9 C 1116.3 141.7 1139.6 136.3 1157.7 139.6 C 1175.8 142.8 1193.7 154.8 1206.1 165.6 C 1218.5 176.3 1231.7 191.0 1232.1 204.0 Z" fill="none" stroke="#2A3242" stroke-width="1.4"/>
<path d="M 1266.5 218.0 C 1265.9 235.6 1254.7 254.9 1239.6 270.1 C 1224.5 285.3 1200.8 304.3 1176.0 309.4 C 1151.1 314.4 1115.8 306.9 1090.5 300.2 C 1065.3 293.5 1040.2 282.9 1024.2 269.2 C 1008.3 255.5 996.4 235.7 995.0 218.0 C 993.6 200.3 1000.7 178.0 1015.8 162.8 C 1031.0 147.5 1059.3 132.4 1086.0 126.5 C 1112.6 120.6 1149.4 121.2 1175.6 127.4 C 1201.8 133.7 1228.0 149.1 1243.2 164.2 C 1258.3 179.3 1267.1 200.4 1266.5 218.0 Z" fill="none" stroke="#2A3242" stroke-width="1.4"/>
<path d="M 1302.8 232.0 C 1304.9 253.7 1297.0 281.9 1278.2 300.2 C 1259.4 318.5 1223.0 334.7 1190.1 341.9 C 1157.3 349.2 1114.8 350.1 1081.0 343.7 C 1047.1 337.3 1005.0 322.1 987.0 303.4 C 969.0 284.8 971.1 254.9 973.0 232.0 C 974.9 209.1 980.6 185.3 998.3 166.0 C 1016.0 146.7 1047.1 123.5 1079.0 116.2 C 1110.9 109.0 1158.7 113.7 1189.8 122.7 C 1220.9 131.6 1246.8 151.6 1265.6 169.8 C 1284.5 188.1 1300.7 210.3 1302.8 232.0 Z" fill="none" stroke="#2A3242" stroke-width="1.4"/>
<path d="M 1334.9 246.0 C 1332.4 274.1 1329.7 302.8 1309.2 326.6 C 1288.6 350.5 1250.3 380.4 1211.4 389.0 C 1172.5 397.6 1116.2 388.5 1075.8 378.4 C 1035.5 368.3 993.2 350.5 969.1 328.4 C 945.0 306.4 933.2 274.5 931.0 246.0 C 928.8 217.5 932.2 179.9 956.1 157.3 C 980.0 134.8 1032.6 118.2 1074.4 110.7 C 1116.2 103.1 1165.3 104.2 1206.9 112.1 C 1248.6 120.0 1303.1 135.7 1324.4 158.1 C 1345.7 180.4 1337.4 217.9 1334.9 246.0 Z" fill="none" stroke="#2A3242" stroke-width="1.4"/>
<path d="M 1402.0 260.0 C 1402.7 293.1 1386.1 336.1 1355.4 360.4 C 1324.7 384.7 1266.2 395.2 1217.8 405.9 C 1169.4 416.5 1112.1 431.8 1065.1 424.3 C 1018.1 416.7 962.1 388.1 935.9 360.8 C 909.7 333.4 904.0 291.7 908.0 260.0 C 912.0 228.3 932.2 195.3 959.7 170.7 C 987.3 146.0 1028.5 125.2 1073.2 112.2 C 1118.0 99.2 1182.0 84.5 1228.3 92.8 C 1274.7 101.0 1322.3 133.7 1351.3 161.6 C 1380.2 189.4 1401.3 226.9 1402.0 260.0 Z" fill="none" stroke="#2A3242" stroke-width="1.4"/>
<path d="M 1433.3 274.0 C 1434.1 313.5 1432.6 362.7 1400.9 393.9 C 1369.2 425.0 1299.6 450.7 1243.0 461.0 C 1186.5 471.2 1114.5 468.5 1061.8 455.3 C 1009.0 442.0 956.4 411.7 926.7 381.5 C 897.1 351.3 881.8 308.9 883.8 274.0 C 885.9 239.1 908.8 201.4 939.0 172.4 C 969.2 143.3 1015.8 111.0 1065.1 99.5 C 1114.4 88.1 1179.7 94.1 1234.9 103.6 C 1290.0 113.1 1362.9 128.2 1395.9 156.6 C 1429.0 184.9 1432.4 234.5 1433.3 274.0 Z" fill="none" stroke="#2A3242" stroke-width="1.4"/>

<path d="M 790.0 452.0 C 805.0 444.7 852.0 424.7 880.0 408.0 C 908.0 391.3 934.0 370.7 958.0 352.0 C 982.0 333.3 1004.0 314.0 1024.0 296.0 C 1044.0 278.0 1064.3 259.0 1078.0 244.0 C 1091.7 229.0 1099.7 217.7 1106.0 206.0 C 1112.3 194.3 1114.3 179.3 1116.0 174.0 " fill="none" stroke="#E9ECF1" stroke-width="1.6" stroke-dasharray="1 7" stroke-linecap="round" opacity="0.6"/>
<circle cx="790" cy="452" r="5" fill="#0B0E14" stroke="#E9ECF1" stroke-width="1.4" opacity="0.85"/>
<circle cx="880" cy="408" r="5" fill="#0B0E14" stroke="#E9ECF1" stroke-width="1.4" opacity="0.85"/>
<circle cx="958" cy="352" r="5" fill="#0B0E14" stroke="#E9ECF1" stroke-width="1.4" opacity="0.85"/>
<circle cx="1024" cy="296" r="5" fill="#0B0E14" stroke="#E9ECF1" stroke-width="1.4" opacity="0.85"/>
<circle cx="1078" cy="244" r="5" fill="#0B0E14" stroke="#E9ECF1" stroke-width="1.4" opacity="0.85"/><circle cx="1078" cy="244" r="9.5" fill="none" stroke="#E9ECF1" stroke-width="1.1" opacity="0.5"/>
<circle cx="1106" cy="206" r="5" fill="#0B0E14" stroke="#E9ECF1" stroke-width="1.4" opacity="0.85"/><circle cx="1106" cy="206" r="9.5" fill="none" stroke="#E9ECF1" stroke-width="1.1" opacity="0.5"/>
<circle cx="1116" cy="174" r="11" fill="none" stroke="#F5A623" stroke-width="1.4" opacity="0.55"/>
<circle cx="1116" cy="174" r="5.5" fill="#F5A623"/>
<line x1="1116" y1="168" x2="1116" y2="134" stroke="#E9ECF1" stroke-width="1.4"/>
<path d="M 1116 134 L 1146 142 L 1116 150 Z" fill="#F5A623"/>
<text x="92" y="212" font-family="ui-monospace, SFMono-Regular, Menlo, Consolas, 'Liberation Mono', monospace" font-size="76" letter-spacing="6" fill="#E9ECF1">frontier</text>
<text x="94" y="258" font-family="ui-monospace, SFMono-Regular, Menlo, Consolas, 'Liberation Mono', monospace" font-size="21" letter-spacing="1" fill="#6B7280">quality is a procedure, not a property</text>
<rect x="92" y="296" width="404" height="54" rx="10" fill="#11161F" stroke="#2A3242" stroke-width="1.4"/>
<text x="116" y="330" font-family="ui-monospace, SFMono-Regular, Menlo, Consolas, 'Liberation Mono', monospace" font-size="22" fill="#F5A623">/frontier &lt;deliverable&gt;</text>
<text x="94" y="404" font-family="ui-monospace, SFMono-Regular, Menlo, Consolas, 'Liberation Mono', monospace" font-size="17" letter-spacing="0.5" fill="#9CA3AF">21 crafts &#183; best-of-N candidates &#183; 2-clean-pass convergence &#183; taste gate</text>
</svg>