<svg xmlns="http://www.w3.org/2000/svg" width="1280" height="640" viewBox="0 0 1280 640">
<rect width="1280" height="640" fill="#0B0E14"/>
<path d="M 1143.1 105.0 C 1143.0 108.1 1140.7 111.6 1138.0 114.2 C 1135.4 116.7 1131.3 119.2 1127.1 120.3 C 1122.9 121.3 1117.0 121.4 1112.9 120.3 C 1108.7 119.3 1104.7 116.6 1102.1 114.1 C 1099.6 111.5 1097.5 108.1 1097.4 105.0 C 1097.4 101.9 1099.2 98.4 1101.7 95.7 C 1104.2 93.0 1108.2 90.3 1112.6 89.0 C 1116.9 87.7 1123.6 86.9 1127.9 88.1 C 1132.1 89.2 1135.7 92.9 1138.3 95.7 C 1140.8 98.5 1143.1 101.9 1143.1 105.0 Z" fill="none" stroke="#1E2634" stroke-width="1.4"/>
<path d="M 1187.1 116.0 C 1186.5 124.1 1177.3 132.8 1169.8 139.3 C 1162.3 145.8 1152.7 152.6 1142.1 155.1 C 1131.6 157.5 1117.0 156.6 1106.4 154.0 C 1095.7 151.3 1085.8 145.6 1078.3 139.2 C 1070.9 132.9 1062.3 124.0 1061.7 116.0 C 1061.1 108.0 1067.8 98.0 1074.9 91.0 C 1082.1 84.1 1093.4 76.4 1104.6 74.1 C 1115.7 71.8 1130.5 74.3 1142.1 77.1 C 1153.6 79.8 1166.4 84.1 1173.9 90.6 C 1181.4 97.1 1187.8 107.9 1187.1 116.0 Z" fill="none" stroke="#1E2634" stroke-width="1.4"/>
<path d="M 1225.0 127.0 C 1225.3 139.2 1212.2 153.6 1200.9 164.1 C 1189.6 174.5 1174.1 186.0 1157.2 190.0 C 1140.4 193.9 1117.4 191.7 1099.8 187.7 C 1082.2 183.7 1061.9 175.9 1051.7 165.8 C 1041.4 155.7 1037.6 139.6 1038.2 127.0 C 1038.8 114.4 1044.9 99.8 1055.4 90.1 C 1065.8 80.3 1084.1 71.9 1100.8 68.3 C 1117.4 64.7 1138.8 64.7 1155.2 68.4 C 1171.6 72.2 1187.6 81.0 1199.2 90.8 C 1210.9 100.5 1224.7 114.8 1225.0 127.0 Z" fill="none" stroke="#1E2634" stroke-width="1.4"/>
<path d="M 1260.4 138.0 C 1258.3 155.9 1245.2 172.9 1231.0 188.3 C 1216.7 203.8 1197.9 225.0 1175.0 230.5 C 1152.0 236.0 1118.4 227.7 1093.3 221.3 C 1068.2 215.0 1038.7 206.5 1024.5 192.6 C 1010.4 178.8 1008.7 156.5 1008.3 138.0 C 1007.8 119.5 1008.3 97.5 1021.6 81.9 C 1035.0 66.2 1063.6 48.4 1088.4 44.0 C 1113.2 39.7 1144.3 49.5 1170.2 55.7 C 1196.1 61.9 1228.8 67.4 1243.8 81.1 C 1258.9 94.8 1262.6 120.1 1260.4 138.0 Z" fill="none" stroke="#1E2634" stroke-width="1.4"/>
<path d="M 1297.7 149.0 C 1295.8 172.5 1286.9 196.9 1269.1 216.7 C 1251.4 236.5 1222.5 259.7 1191.2 268.0 C 1159.9 276.3 1113.9 274.6 1081.4 266.6 C 1048.9 258.6 1013.2 239.6 996.3 220.0 C 979.4 200.4 979.8 172.6 980.1 149.0 C 980.3 125.4 980.2 97.0 997.7 78.7 C 1015.2 60.3 1053.7 45.0 1085.0 39.0 C 1116.2 33.1 1152.6 37.0 1185.2 43.1 C 1217.7 49.2 1261.6 57.9 1280.3 75.6 C 1299.1 93.2 1299.5 125.5 1297.7 149.0 Z" fill="none" stroke="#1E2634" stroke-width="1.4"/>
<path d="M 1354.2 160.0 C 1356.5 187.1 1331.5 221.1 1306.8 244.8 C 1282.1 268.6 1244.1 295.0 1206.2 302.6 C 1168.3 310.2 1120.0 299.2 1079.4 290.5 C 1038.9 281.7 986.6 271.9 962.8 250.1 C 938.9 228.4 932.0 187.9 936.1 160.0 C 940.3 132.1 963.9 104.3 987.9 82.6 C 1011.8 61.0 1043.5 40.6 1079.7 30.1 C 1115.9 19.7 1169.4 11.5 1204.9 20.2 C 1240.4 28.9 1268.0 59.0 1292.9 82.3 C 1317.7 105.6 1351.9 132.9 1354.2 160.0 Z" fill="none" stroke="#1E2634" stroke-width="1.4"/>

<circle cx="1120" cy="105" r="5" fill="#F5A623"/>
<text x="640" y="322" text-anchor="middle" font-family="ui-monospace, SFMono-Regular, Menlo, Consolas, 'Liberation Mono', monospace" font-size="96" letter-spacing="10" fill="#E9ECF1">frontier</text>
<line x1="480" y1="366" x2="800" y2="366" stroke="#2A3242" stroke-width="1.5"/>
<text x="640" y="414" text-anchor="middle" font-family="ui-monospace, SFMono-Regular, Menlo, Consolas, 'Liberation Mono', monospace" font-size="23" letter-spacing="1" fill="#9CA3AF">standards by fable 5 &#183; output by your model</text>
<text x="640" y="474" text-anchor="middle" font-family="ui-monospace, SFMono-Regular, Menlo, Consolas, 'Liberation Mono', monospace" font-size="19" fill="#6B7280">quality is a procedure, not a property</text>
</svg>